<svg xmlns="http://www.w3.org/2000/svg" xmlns:xlink="http://www.w3.org/1999/xlink" width="236" height="235.313" viewBox="0 0 236 235.313"><defs><style>.a{fill:url(#a);}.b,.o{fill:#2626bc;}.b{opacity:0.1;}.c{fill:#fff;}.d{fill:#ffdbed;}.e{fill:#ff7eb8;}.f{fill:#ff5ba8;}.g{fill:#02ffb3;}.h{fill:#9fb0fe;}.i{fill:#8399fe;}.j{fill:#6583fe;}.k{fill:#4369fd;}.l{fill:#97ffd2;}.m{fill:#01eca5;}.n{fill:#00d890;}</style><linearGradient id="a" y1="0.5" x2="1" y2="0.5" gradientUnits="objectBoundingBox"><stop offset="0" stop-color="#ffdbed" stop-opacity="0"/><stop offset="1" stop-color="#ffdbed"/></linearGradient></defs><path class="a" d="M208.25,20.666C134.244-24.445,19.031,16.7,5.625,49.221c-17.934,43.51,12.251,50.946,17.858,86.6,4.5,28.606-23.592,56-7.557,81.255,17.462,27.5,75.347,20.6,97.349,7.581,40.275-23.823,19.963-51.63,39.034-86.333,18.164-33.052,53.581-19.647,74.193-46.089,19.59-25.131,6.6-56.42-18.252-71.566Z" transform="translate(0.001 -0.746)"/><g transform="translate(12.555 9.468)"><g transform="translate(4.283 26.541)"><g transform="translate(2.305 2.305)"><path class="b" d="M232.33,107.867H48.444a6.914,6.914,0,0,0-6.914,6.914V259.638a6.914,6.914,0,0,0,6.914,6.914h7.878V277.59a4.609,4.609,0,0,0,4.609,4.609h67.1a4.609,4.609,0,0,0,4.609-4.609V266.552H148.13V277.59a4.609,4.609,0,0,0,4.609,4.609h67.1a4.609,4.609,0,0,0,4.609-4.609V266.552h7.878a6.914,6.914,0,0,0,6.914-6.914V114.781A6.914,6.914,0,0,0,232.33,107.867Z" transform="translate(-41.53 -96.805)"/><path class="c" d="M232.33,242.552H48.444a6.914,6.914,0,0,1-6.914-6.914V90.781a6.914,6.914,0,0,1,6.914-6.914H232.33a6.914,6.914,0,0,1,6.914,6.914V235.638A6.914,6.914,0,0,1,232.33,242.552Z" transform="translate(-41.53 -83.867)"/><circle class="d" cx="20.412" cy="20.412" r="20.412" transform="translate(78.445 104.806)"/><path class="e" d="M239.244,115.816V90.781a6.914,6.914,0,0,0-6.914-6.914H48.444a6.914,6.914,0,0,0-6.914,6.914v25.035Z" transform="translate(-41.53 -83.867)"/><g transform="translate(15.299 9.679)"><g transform="translate(0 2.305)"><circle class="f" cx="5.025" cy="5.025" r="5.025"/><circle class="c" cx="5.025" cy="5.025" r="5.025" transform="translate(16.041)"/><circle class="g" cx="5.025" cy="5.025" r="5.025" transform="translate(32.082)"/></g><path class="d" d="M358.879,119.811h-62.76V108.52H358.88a2.3,2.3,0,0,1,2.3,2.3v6.682a2.3,2.3,0,0,1-2.305,2.3Z" transform="translate(-194.069 -106.836)"/><path class="c" d="M284.316,106.694a6.249,6.249,0,1,0-1.945,10.152l2,2a2.3,2.3,0,0,0,3.259-3.259l-2-2a6.255,6.255,0,0,0-1.314-6.893Zm-5.578,3.259a1.64,1.64,0,1,1,0,2.319A1.642,1.642,0,0,1,278.738,109.953Z" transform="translate(-181.958 -104.867)"/></g></g><g transform="translate(17.097 49.363)"><path class="h" d="M149.942,190.569V308.625a4.611,4.611,0,0,1-4.609,4.609h-67.1a4.611,4.611,0,0,1-4.609-4.609V190.569a4.611,4.611,0,0,1,4.609-4.609h67.1a4.611,4.611,0,0,1,4.609,4.609Z" transform="translate(-73.62 -185.96)"/><path class="i" d="M224.387,314.54v37.783a20.421,20.421,0,0,1,0-37.783Z" transform="translate(-148.065 -255.273)"/><path class="i" d="M149.942,381.02v32.754a4.611,4.611,0,0,1-4.609,4.609h-67.1a4.611,4.611,0,0,1-4.609-4.609V381.02Z" transform="translate(-73.62 -291.11)"/><g transform="translate(0.001 0.001)"><path class="j" d="M228.737,381.02v7.14a20.452,20.452,0,0,1-8.947-7.14Z" transform="translate(-152.416 -291.111)"/><path class="j" d="M149.943,200.488H73.622v-9.916a4.609,4.609,0,0,1,4.609-4.609h67.1a4.609,4.609,0,0,1,4.609,4.609Z" transform="translate(-73.622 -185.962)"/></g><g transform="translate(22.651 29.518)"><circle class="g" cx="15.511" cy="15.511" r="15.511"/><path class="c" d="M155.115,275.835a7.658,7.658,0,1,0-13.127,5.356,7.628,7.628,0,0,0-2.189,5.351V288.8a15.453,15.453,0,0,0,4.609,1.719v-3.978a3.049,3.049,0,0,1,6.1,0v3.978a15.452,15.452,0,0,0,4.609-1.719v-2.259a7.612,7.612,0,0,0-2.194-5.351A7.632,7.632,0,0,0,155.115,275.835Zm-7.661,3.051a3.049,3.049,0,1,1,3.051-3.051A3.054,3.054,0,0,1,147.454,278.887Z" transform="translate(-131.945 -259.8)"/></g><g transform="translate(22.102 19.537)"><g transform="translate(0 49.296)"><path class="k" d="M151.385,339.9H123.876a2.3,2.3,0,0,1,0-4.609h27.509a2.3,2.3,0,0,1,0,4.609Z" transform="translate(-121.571 -335.293)"/></g><g transform="translate(0 78.677)"><path class="c" d="M151.385,403.644H123.876a2.3,2.3,0,1,1,0-4.609h27.509a2.3,2.3,0,1,1,0,4.609Z" transform="translate(-121.571 -399.035)"/></g><g transform="translate(0 87.48)"><path class="c" d="M151.385,422.742H123.876a2.3,2.3,0,1,1,0-4.609h27.509a2.3,2.3,0,0,1,0,4.609Z" transform="translate(-121.571 -418.133)"/></g><g transform="translate(0 57.343)"><path class="k" d="M133.408,357.359h-9.533a2.3,2.3,0,0,1,0-4.609h9.533a2.3,2.3,0,1,1,0,4.609Z" transform="translate(-121.571 -352.75)"/></g><g transform="translate(35.47)"><path class="c" d="M206.213,232.954h-5.384a2.3,2.3,0,0,1,0-4.609h5.384a2.3,2.3,0,0,1,0,4.609Z" transform="translate(-198.524 -228.345)"/><g transform="translate(0 7.138)"><path class="c" d="M206.213,248.44h-5.384a2.3,2.3,0,0,1,0-4.609h5.384a2.3,2.3,0,0,1,0,4.609Z" transform="translate(-198.524 -243.831)"/></g></g></g><g transform="translate(9.126 19.536)"><circle class="c" cx="2.306" cy="2.306" r="2.306"/></g><g transform="translate(91.809)"><path class="l" d="M349.122,190.569V308.625a4.611,4.611,0,0,1-4.609,4.609h-67.1a4.611,4.611,0,0,1-4.609-4.609V190.569a4.611,4.611,0,0,1,4.609-4.609h67.1a4.611,4.611,0,0,1,4.609,4.609Z" transform="translate(-272.8 -185.96)"/><path class="g" d="M285.467,333.434A20.407,20.407,0,0,1,272.8,352.323V314.54A20.419,20.419,0,0,1,285.467,333.434Z" transform="translate(-272.8 -255.273)"/><path class="m" d="M349.122,381.02v32.754a4.611,4.611,0,0,1-4.609,4.609h-67.1a4.611,4.611,0,0,1-4.609-4.609V381.02Z" transform="translate(-272.8 -291.11)"/><path class="n" d="M281.747,381.02a20.452,20.452,0,0,1-8.947,7.14v-7.14Z" transform="translate(-272.8 -291.11)"/><path class="m" d="M349.12,200.488H272.8v-9.916a4.609,4.609,0,0,1,4.609-4.609h67.1a4.609,4.609,0,0,1,4.609,4.609Z" transform="translate(-272.799 -185.961)"/><g transform="translate(22.65 29.518)"><circle class="e" cx="15.511" cy="15.511" r="15.511"/><path class="c" d="M354.292,275.835a7.658,7.658,0,1,0-13.128,5.356,7.628,7.628,0,0,0-2.189,5.351V288.8a15.453,15.453,0,0,0,4.609,1.719v-3.978a3.049,3.049,0,0,1,6.1,0v3.978a15.453,15.453,0,0,0,4.609-1.719v-2.259a7.612,7.612,0,0,0-2.194-5.351,7.632,7.632,0,0,0,2.194-5.356Zm-7.661,3.051a3.049,3.049,0,1,1,3.051-3.051A3.054,3.054,0,0,1,346.631,278.887Z" transform="translate(-331.122 -259.8)"/></g><g transform="translate(22.101 19.537)"><g transform="translate(0 49.296)"><path class="e" d="M350.562,339.9H323.053a2.3,2.3,0,0,1,0-4.609h27.509a2.3,2.3,0,0,1,0,4.609Z" transform="translate(-320.748 -335.293)"/></g><g transform="translate(0 78.677)"><path class="c" d="M350.562,403.644H323.053a2.3,2.3,0,1,1,0-4.609h27.509a2.3,2.3,0,1,1,0,4.609Z" transform="translate(-320.748 -399.035)"/></g><g transform="translate(0 87.48)"><path class="c" d="M350.562,422.742H323.053a2.3,2.3,0,0,1,0-4.609h27.509a2.3,2.3,0,0,1,0,4.609Z" transform="translate(-320.748 -418.133)"/></g><g transform="translate(0 57.343)"><path class="e" d="M332.585,357.359h-9.533a2.3,2.3,0,0,1,0-4.609h9.533a2.3,2.3,0,0,1,0,4.609Z" transform="translate(-320.748 -352.75)"/></g><g transform="translate(35.47)"><path class="c" d="M405.39,232.954h-5.384a2.3,2.3,0,0,1,0-4.609h5.384a2.3,2.3,0,0,1,0,4.609Z" transform="translate(-397.701 -228.345)"/><g transform="translate(0 7.138)"><path class="c" d="M405.39,248.44h-5.384a2.3,2.3,0,1,1,0-4.609h5.384a2.3,2.3,0,1,1,0,4.609Z" transform="translate(-397.701 -243.831)"/></g></g></g><g transform="translate(9.125 19.536)"><circle class="c" cx="2.306" cy="2.306" r="2.306"/></g></g></g><circle class="e" cx="20.412" cy="20.412" r="20.412" transform="translate(80.75 96.049)"/><path class="o" d="M229.635,78.867H45.748a9.229,9.229,0,0,0-9.219,9.219V232.943a9.229,9.229,0,0,0,9.219,9.219h5.574V250.9a6.922,6.922,0,0,0,6.914,6.914h67.1a6.922,6.922,0,0,0,6.914-6.914v-8.734H143.13V250.9a6.922,6.922,0,0,0,6.914,6.914h67.1a6.922,6.922,0,0,0,6.914-6.914v-8.734h5.574a9.229,9.229,0,0,0,9.219-9.219V88.086a9.229,9.229,0,0,0-9.219-9.219ZM125.339,253.2h-67.1a2.307,2.307,0,0,1-2.3-2.3V132.84a2.307,2.307,0,0,1,2.3-2.3h67.1a2.307,2.307,0,0,1,2.3,2.3v42.121a22.705,22.705,0,0,0,0,40.733v35.2A2.307,2.307,0,0,1,125.339,253.2Zm30.46-57.872a18.107,18.107,0,1,1-18.107-18.107A18.128,18.128,0,0,1,155.8,195.328Zm-23.546,42.224v-20.17a22.644,22.644,0,0,0,10.877,0v20.17Zm87.2,13.344a2.307,2.307,0,0,1-2.3,2.3h-67.1a2.307,2.307,0,0,1-2.3-2.3v-35.2a22.705,22.705,0,0,0,0-40.733V132.84a2.307,2.307,0,0,1,2.3-2.3h67.1a2.307,2.307,0,0,1,2.3,2.3Zm14.793-17.953a4.615,4.615,0,0,1-4.609,4.609h-5.574V132.84a6.922,6.922,0,0,0-6.914-6.914h-67.1a6.922,6.922,0,0,0-6.914,6.914v40.433a22.644,22.644,0,0,0-10.877,0V132.84a6.922,6.922,0,0,0-6.914-6.914h-67.1a6.922,6.922,0,0,0-6.914,6.914V237.552H45.748a4.615,4.615,0,0,1-4.609-4.609V88.086a4.615,4.615,0,0,1,4.609-4.609H229.634a4.615,4.615,0,0,1,4.609,4.609V232.943Z" transform="translate(-36.529 -78.867)"/><g transform="translate(92.659 104.123)"><path class="c" d="M252.254,315.569h-12.4a2.3,2.3,0,0,1-1.629-3.934l6.2-6.2a2.3,2.3,0,0,1,3.259,3.259l-2.264,2.264h6.833a2.3,2.3,0,0,1,0,4.609Z" transform="translate(-237.552 -304.761)"/><g transform="translate(0 13.868)"><path class="c" d="M246.056,345.656a2.3,2.3,0,0,1-1.629-3.934l2.264-2.264h-6.833a2.3,2.3,0,0,1,0-4.609h12.4a2.3,2.3,0,0,1,1.629,3.934l-6.2,6.2a2.3,2.3,0,0,1-1.63.675Z" transform="translate(-237.553 -334.848)"/></g></g></g><path class="m" d="M321.7,45.329a2.3,2.3,0,0,1-2.3-2.3,2.769,2.769,0,0,0-2.766-2.766,2.3,2.3,0,1,1,0-4.609,2.769,2.769,0,0,0,2.766-2.766,2.3,2.3,0,1,1,4.609,0,2.768,2.768,0,0,0,2.765,2.766,2.3,2.3,0,1,1,0,4.609A2.768,2.768,0,0,0,324,43.024,2.3,2.3,0,0,1,321.7,45.329Z" transform="translate(-181.994 -26.296)"/><path class="j" d="M275.943,34.462a6.587,6.587,0,1,1,6.587-6.587,6.595,6.595,0,0,1-6.587,6.587Zm0-8.566a1.978,1.978,0,1,0,1.978,1.978A1.981,1.981,0,0,0,275.943,25.9Z" transform="translate(-157.754 -21.287)"/><path class="f" d="M33.825,460.965a6.587,6.587,0,1,1,6.588-6.587A6.595,6.595,0,0,1,33.825,460.965Zm0-8.566a1.978,1.978,0,1,0,1.978,1.978A1.981,1.981,0,0,0,33.825,452.4Z" transform="translate(-27.238 -251.199)"/><g transform="translate(86.641 4.283)"><path class="m" d="M222.58,45.329a2.3,2.3,0,0,1-2.3-2.3,2.768,2.768,0,0,0-2.766-2.766,2.3,2.3,0,1,1,0-4.609,2.768,2.768,0,0,0,2.766-2.766,2.3,2.3,0,0,1,4.609,0,2.768,2.768,0,0,0,2.766,2.766,2.3,2.3,0,1,1,0,4.609,2.768,2.768,0,0,0-2.766,2.766A2.3,2.3,0,0,1,222.58,45.329Z" transform="translate(-215.205 -30.579)"/><path class="m" d="M462.846,473.832a2.3,2.3,0,0,1-2.3-2.3,2.768,2.768,0,0,0-2.766-2.766,2.3,2.3,0,1,1,0-4.609,2.768,2.768,0,0,0,2.766-2.766,2.3,2.3,0,0,1,4.609,0,2.768,2.768,0,0,0,2.766,2.766,2.3,2.3,0,1,1,0,4.609,2.768,2.768,0,0,0-2.766,2.766A2.3,2.3,0,0,1,462.846,473.832Z" transform="translate(-344.724 -261.569)"/></g></g></svg>